<svg id="Layer_1" enable-background="new 0 0 512 512" height="512" viewBox="0 0 512 512" width="512" xmlns="http://www.w3.org/2000/svg"><g><path d="m256 0c-66.785 0-120.925 54.14-120.925 120.925s54.14 120.925 120.925 120.925 19.53-54.14 19.53-120.925 47.255-120.925-19.53-120.925z" fill="#ffea94"/><path d="m256 0v241.85c66.785 0 120.925-54.14 120.925-120.925s-54.14-120.925-120.925-120.925z" fill="#ffd92e"/><g><path d="m191.897 386.325v32.052l33.162 54.13 30.941 10.339 7.5-10.339v-54.13-32.052z" fill="#ffea94"/><g><path d="m256 472.507 2.531 14.816 28.41-14.816 33.162-54.13v-32.052h-64.103z" fill="#ffd92e"/></g><path d="m191.897 286.851v.111l128.206.231v-.342z" fill="#ffd92e"/><path d="m191.897 286.851v99.474c0 17.701 14.35 32.051 32.051 32.051 17.701 0 32.051-14.35 32.051-32.051v-99.474z" fill="#7ee780"/><g><path d="m288.051 418.377c17.701 0 32.051-14.35 32.051-32.051v-99.474h-64.103v99.474c.001 17.701 14.351 32.051 32.052 32.051z" fill="#00cb71"/></g><g><path d="m249.252 512h13.496l.752-39.493h-38.441z" fill="#3e34c2"/></g><g><path d="m256 512h6.748l24.193-39.493h-30.941z" fill="#23238e"/></g></g><g><g><g><path d="m241 141.745h30v84.154h-30z" fill="#554cce"/></g><g><path d="m256 141.745h15v84.154h-15z" fill="#3e34c2"/></g><path d="m191.897 222.536h128.205v67.052h-128.205z" fill="#00cb71"/><path d="m256 222.536h64.102v67.052h-64.102z" fill="#009854"/><g><path d="m216.94 126.745h78.119v30h-78.119z" fill="#3e34c2"/></g><g><path d="m256 126.745h39.06v30h-39.06z" fill="#23238e"/></g></g><g><path d="m436.334 112.99h57.662v30h-57.662z" fill="#fcbe00"/></g><g><path d="m416.736 24.594h57.662v30h-57.662z" fill="#fcbe00" transform="matrix(.906 -.423 .423 .906 25.009 192.003)"/></g><g><path d="m430.567 187.556h30v57.662h-30z" fill="#fcbe00" transform="matrix(.423 -.906 .906 .423 61.149 528.759)"/></g><g><path d="m18.004 112.99h57.662v30h-57.662z" fill="#ffd92e"/></g><g><path d="m51.433 10.763h30v57.662h-30z" fill="#ffd92e" transform="matrix(.423 -.906 .906 .423 2.473 83.069)"/></g><g><path d="m37.601 201.387h57.662v30h-57.662z" fill="#ffd92e" transform="matrix(.906 -.423 .423 .906 -85.22 48.345)"/></g></g></g></svg>