<?xml version="1.0" encoding="iso-8859-1"?>
<!-- Generator: Adobe Illustrator 19.0.0, SVG Export Plug-In . SVG Version: 6.00 Build 0)  -->
<svg version="1.1" id="Capa_1" xmlns="http://www.w3.org/2000/svg" xmlns:xlink="http://www.w3.org/1999/xlink" x="0px" y="0px"
	 viewBox="0 0 512.006 512.006" style="enable-background:new 0 0 512.006 512.006;" xml:space="preserve">
<path style="fill:#E95454;" d="M198.051,280.624L93.363,461.136l31.328-10.688c9.856-3.36,20.56,2.096,23.6,12.064l11.136,36.432
	c4.848,15.856,26.512,17.776,34.064,3.008l90.672-177.296L198.051,280.624z"/>
<path style="fill:#ED6362;" d="M156.931,259.6L66.259,436.896c-7.536,14.752,6.704,31.2,22.384,25.856l4.72-1.616l104.672-180.512
	L156.931,259.6z"/>
<path style="fill:#E95454;" d="M313.955,280.624l104.672,180.512l-31.328-10.688c-9.856-3.36-20.56,2.096-23.6,12.064
	l-11.136,36.432c-4.848,15.856-26.512,17.776-34.064,3.008l-90.672-177.296L313.955,280.624z"/>
<path style="fill:#ED6362;" d="M355.075,259.6l90.672,177.296c7.552,14.752-6.688,31.216-22.384,25.856l-4.72-1.616L313.971,280.624
	L355.075,259.6z"/>
<circle style="fill:#FEE218;" cx="256.003" cy="203.824" r="203.824"/>
<circle style="fill:#3789C9;" cx="256.003" cy="203.824" r="136.256"/>
<path style="fill:#FBEE37;" d="M171.219,368.72c-62.048-31.968-100.592-95.152-100.592-164.896
	c0-102.208,83.152-185.376,185.376-185.376c49.328,0,95.744,19.152,130.72,53.92c6.304,6.272,6.336,16.464,0.064,22.768
	c-6.256,6.32-16.448,6.336-22.768,0.064c-28.896-28.72-67.264-44.544-108.016-44.544c-84.464,0-153.168,68.704-153.168,153.168
	c0,57.632,31.856,109.856,83.152,136.256c7.904,4.064,11.008,13.776,6.944,21.696C188.803,369.744,179.091,372.768,171.219,368.72z"
	/>
<path style="fill:#FFFFFF;" d="M227.859,269.184c-5.152,0-10.304-1.968-14.224-5.904l-34.192-34.192
	c-7.856-7.856-7.856-20.592,0-28.464c7.856-7.856,20.592-7.856,28.464,0l19.952,19.952l76.24-76.24
	c7.856-7.856,20.592-7.856,28.464,0c7.856,7.856,7.856,20.592,0,28.464l-90.464,90.464
	C238.163,267.216,233.011,269.184,227.859,269.184z"/>
<g>
	<circle style="fill:#4B9FD8;" cx="188.611" cy="146.4" r="27.44"/>
	<circle style="fill:#4B9FD8;" cx="353.923" cy="229.904" r="18.144"/>
</g>
<g>
</g>
<g>
</g>
<g>
</g>
<g>
</g>
<g>
</g>
<g>
</g>
<g>
</g>
<g>
</g>
<g>
</g>
<g>
</g>
<g>
</g>
<g>
</g>
<g>
</g>
<g>
</g>
<g>
</g>
</svg>
