<?xml version="1.0" encoding="iso-8859-1"?>
<!-- Generator: Adobe Illustrator 19.0.0, SVG Export Plug-In . SVG Version: 6.00 Build 0)  -->
<svg version="1.1" id="Capa_1" xmlns="http://www.w3.org/2000/svg" xmlns:xlink="http://www.w3.org/1999/xlink" x="0px" y="0px"
	 viewBox="0 0 512 512" style="enable-background:new 0 0 512 512;" xml:space="preserve">
<path style="fill:#303C42;" d="M256,0C114.833,0,0,114.844,0,256s114.833,256,256,256c68.375,0,132.667-26.625,181.021-74.979
	c4.167-4.167,4.167-10.917,0-15.083c-4.167-4.167-10.917-4.167-15.083,0C377.625,466.26,318.688,490.667,256,490.667
	C126.604,490.667,21.333,385.396,21.333,256S126.604,21.333,256,21.333S490.667,126.604,490.667,256v32
	c0,29.406-23.917,53.333-53.333,53.333h-32V325.49c0-14.375-11.708-26.073-26.083-26.073c-17.688,0-35.083-2.771-51.542-8.198
	c-9.229-3.208-19.729-0.729-25.604,5.271l-31.708,23.958c-36.521-19.76-59.375-42.594-78.854-78.833l23-30.615
	c6.938-6.938,9.438-17.073,6.438-26.604c-5.458-16.51-8.229-33.896-8.229-51.656c0-14.375-11.708-26.073-26.083-26.073H132.75
	c-14.375,0-26.083,11.698-26.083,26.073c0,150.313,122.271,272.594,272.583,272.594c14.375,0,26.083-11.698,26.083-26.073v-16.594
	h32C478.5,362.667,512,329.167,512,288v-32C512,114.844,397.167,0,256,0z"/>
<path style="fill:#4FC3F7;" d="M384,379.26c0,2.573-2.167,4.74-4.75,4.74C240.708,384,128,271.281,128,132.74
	c0-2.573,2.167-4.74,4.75-4.74h53.917c2.583,0,4.75,2.167,4.75,4.74c0,20.042,3.125,39.677,9.25,58.198
	c0.271,0.865,0.708,3.073-2.188,6.094l-28.042,37.135c-2.458,3.25-2.833,7.625-0.979,11.26c23.146,45.5,51.271,73.625,97.104,97.104
	c3.604,1.865,8,1.479,11.292-0.979l38.229-29.01c1.229-1.25,3.042-1.677,4.833-1.115c18.729,6.188,38.354,9.323,58.333,9.323
	c2.583,0,4.75,2.167,4.75,4.74V379.26z"/>
<path style="opacity:0.1;enable-background:new    ;" d="M379.25,320.75c-5.59,0-11.061-0.82-16.585-1.31v11.279
	c0,18.654-16.03,33.935-34.552,31.737c-49.046-5.822-93.667-25.984-129.909-55.947C243.956,354.163,308.129,384,379.25,384
	c2.583,0,4.75-2.167,4.75-4.74V325.49C384,322.917,381.833,320.75,379.25,320.75z"/>
<linearGradient id="SVGID_1_" gradientUnits="userSpaceOnUse" x1="-45.5788" y1="639.5544" x2="-23.9742" y2="629.4827" gradientTransform="matrix(21.3333 0 0 -21.3333 996.3334 13791.667)">
	<stop  offset="0" style="stop-color:#FFFFFF;stop-opacity:0.2"/>
	<stop  offset="1" style="stop-color:#FFFFFF;stop-opacity:0"/>
</linearGradient>
<path style="fill:url(#SVGID_1_);" d="M256,0C114.833,0,0,114.844,0,256s114.833,256,256,256
	c68.375,0,132.667-26.625,181.021-74.979c4.167-4.167,4.167-10.917,0-15.083c-4.167-4.167-10.917-4.167-15.083,0
	C377.625,466.26,318.688,490.667,256,490.667C126.604,490.667,21.333,385.396,21.333,256S126.604,21.333,256,21.333
	S490.667,126.604,490.667,256v32c0,29.406-23.917,53.333-53.333,53.333h-32V325.49c0-14.375-11.708-26.073-26.083-26.073
	c-17.688,0-35.083-2.771-51.542-8.198c-9.229-3.208-19.729-0.729-25.604,5.271l-31.708,23.958
	c-36.521-19.76-59.375-42.594-78.854-78.833l23-30.615c6.938-6.938,9.438-17.073,6.438-26.604
	c-5.458-16.51-8.229-33.896-8.229-51.656c0-14.375-11.708-26.073-26.083-26.073H132.75c-14.375,0-26.083,11.698-26.083,26.073
	c0,150.313,122.271,272.594,272.583,272.594c14.375,0,26.083-11.698,26.083-26.073v-16.594h32C478.5,362.667,512,329.167,512,288
	v-32C512,114.844,397.167,0,256,0z"/>
<g>
</g>
<g>
</g>
<g>
</g>
<g>
</g>
<g>
</g>
<g>
</g>
<g>
</g>
<g>
</g>
<g>
</g>
<g>
</g>
<g>
</g>
<g>
</g>
<g>
</g>
<g>
</g>
<g>
</g>
</svg>
