<svg height="511pt" viewBox="0 -11 511.8 511" width="511pt" xmlns="http://www.w3.org/2000/svg"><path d="m114.199219 278.800781-107 107c-2.800781 2.800781-2.800781 7.398438 0 10.398438l85 85c2.800781 2.800781 7.402343 2.800781 10.402343 0l107-107c2.796876-2.800781 2.796876-7.398438 0-10.398438l-85.203124-85c-2.796876-2.800781-7.398438-2.800781-10.199219 0zm0 0" fill="#60bae2"/><path d="m220.800781 342.601562-76.601562-76.601562c-1.597657-1.601562-4.199219-1.601562-5.800781 0l-13.398438 13.398438 82.601562 82.601562 13.398438-13.398438c1.398438-1.800781 1.398438-4.402343-.199219-6zm0 0" fill="#e9e9ea"/><path d="m450.398438 252c-4.398438-7.800781-14.398438-10.800781-22.398438-6.398438l-63 34.597657c4-3.199219 6.601562-7 6.199219-11.800781-1.199219-21-28.597657-15.597657-50.597657-14.199219-13.601562.800781-35.601562-5.199219-50.203124-10-10.597657-3.398438-21.796876-4.199219-32.796876-2.398438l-32.800781 5.398438c-33.199219 3-51 23-54.402343 25.199219l64.601562 64.601562c1.800781-1 20.199219-20.601562 49.800781-14.800781h.199219l45.800781 9.199219c26 5.203124 53 0 75.199219-14.597657l59.601562-43c7-5 9-14.402343 4.796876-21.800781zm0 0" fill="#f9d0b4"/><path d="m173.601562 225.800781c0 10 5 19.199219 13.199219 24.597657 5.800781-1.796876 12-3 18-3.597657l32.800781-5.402343c11-1.796876 22.199219-1 32.796876 2.402343 14.800781 4.800781 36.601562 10.800781 50.203124 10 15-.800781 32.796876-3.800781 42.796876 1.398438h46.800781l17.800781-9.800781c8-4.398438 18-1.597657 22.398438 6.402343.601562 1 1 2.199219 1.402343 3.398438h7.597657c16.402343 0 29.601562-13.199219 29.601562-29.597657zm0 0" fill="#d3d3dd"/><path d="m495.800781 225.800781h-329c-5.199219 0-9.402343-4.199219-9.402343-9.402343 0-5.199219 4.203124-9.398438 9.402343-9.398438h329c5.199219 0 9.398438 4.199219 9.398438 9.398438 0 5.203124-4.199219 9.402343-9.398438 9.402343zm0 0" fill="#e9e9ea"/><path d="m237.398438 169h187.800781c4.800781 0 8.800781 4 8.800781 8.800781v20.398438c0 4.800781-4 8.800781-8.800781 8.800781h-187.800781c-4.796876 0-8.796876-4-8.796876-8.800781v-20.398438c0-5 4-8.800781 8.796876-8.800781zm0 0" fill="#ffae2c"/><path d="m434 159.398438c0-5.199219-4.199219-9.398438-9.398438-9.398438h-186.402343c-5.199219 0-9.398438 4.199219-9.398438 9.398438 0 5.203124 4.199219 9.402343 9.398438 9.402343h186.402343c5 .199219 9.398438-4 9.398438-9.402343zm0 0" fill="#fcd770"/><path d="m364.601562 159.398438c0-5.199219-4.203124-9.398438-9.402343-9.398438h-47.597657c-5.203124 0-9.402343 4.199219-9.402343 9.398438 0 5.203124 4.199219 9.402343 9.402343 9.402343h47.796876c5 .199219 9.203124-4 9.203124-9.402343zm0 0" fill="#60bae2"/><path d="m418 54.800781-40.199219 44-40.199219-44c-3.601562 3.398438-9.203124 3.398438-12.800781 0l-40.199219 44-40.203124-44c-1.796876 1.597657-4 2.398438-6.398438 2.398438v92.601562h186.398438v-92.402343c-2.398438 0-4.597657-1-6.398438-2.597657zm0 0" fill="#ffae2c"/><path d="m318.601562 101v14.601562l12.597657 13.199219 12.601562-13.199219v-14.601562l-12.601562-13.199219zm0 0" fill="#ea4647"/><path d="m433.800781 47.800781c0 5.191407-4.210937 9.398438-9.402343 9.398438-5.191407 0-9.398438-4.207031-9.398438-9.398438 0-5.191406 4.207031-9.402343 9.398438-9.402343 5.191406 0 9.402343 4.210937 9.402343 9.402343zm0 0" fill="#60bae2"/><path d="m247.601562 47.800781c0 5.191407-4.210937 9.398438-9.402343 9.398438-5.191407 0-9.398438-4.207031-9.398438-9.398438 0-5.191406 4.207031-9.402343 9.398438-9.402343 5.191406 0 9.402343 4.210937 9.402343 9.402343zm0 0" fill="#60bae2"/><path d="m340.601562 47.800781c0 5.191407-4.210937 9.398438-9.402343 9.398438-5.191407 0-9.398438-4.207031-9.398438-9.398438 0-5.191406 4.207031-9.402343 9.398438-9.402343 5.191406 0 9.402343 4.210937 9.402343 9.402343zm0 0" fill="#60bae2"/><path d="m199.601562 128.398438c-8.800781-1.796876-15.800781-8.597657-17.601562-17.597657 0-.199219-.199219-.402343-.398438-.199219-.203124 0-.203124.199219-.203124.199219-1.796876 8.800781-8.597657 15.800781-17.597657 17.597657-.199219 0-.402343.203124-.199219.402343 0 .199219.199219.199219.199219.199219 8.800781 1.800781 15.800781 8.601562 17.597657 17.601562 0 .199219.203124.398438.402343.199219.199219 0 .199219-.199219.199219-.199219 1.800781-8.800781 8.601562-15.800781 17.601562-17.601562.199219 0 .398438-.199219.199219-.398438.199219 0 0-.203124-.199219-.203124zm0 0" fill="#fcd770"/><path d="m484 19h-17.398438c-2.800781 0-5-2.398438-4.800781-5 0-2.601562 2.199219-4.800781 4.800781-4.800781h17.398438c2.800781 0 5 2.199219 5 4.800781s-2 5-5 5c.199219 0 .199219 0 0 0zm0 0" fill="#60bae2"/><path d="m475.398438 27.800781c-2.796876 0-5-2.199219-5-5v-17.402343c0-2.796876 2.203124-5 4.800781-5 2.601562 0 5 2.203124 5 4.800781v.199219 17.402343c.199219 2.597657-2 5-4.800781 5zm0 0" fill="#60bae2"/><path d="m139.398438 72.199219c-1.398438 0-2.597657-.597657-3.597657-1.398438-.199219-.199219-.402343-.402343-.601562-.800781-.199219-.199219-.398438-.601562-.398438-.800781-.199219-.199219-.199219-.597657-.199219-1 0-.398438-.203124-.597657-.203124-1 0-.398438 0-.597657.203124-1 0-.398438.199219-.597657.199219-1 .199219-.398438.199219-.597657.398438-.800781.199219-.199219.402343-.597657.601562-.796876 1.398438-1.402343 3.597657-1.800781 5.398438-1 .199219.199219.601562.199219.800781.398438s.601562.398438.800781.601562c.199219.199219.398438.398438.597657.796876.203124.203124.402343.601562.402343.800781.199219.199219.199219.601562.199219 1 0 .402343 0 .601562.199219 1 0 .402343 0 .601562-.199219 1 0 .402343-.199219.601562-.199219 1-.199219.402343-.199219.601562-.402343.800781-.199219.199219-.398438.601562-.597657.800781s-.402343.398438-.800781.597657c-.199219.203124-.601562.402343-.800781.402343-.398438.199219-.597657.199219-1 .199219-.199219.199219-.597657.199219-.800781.199219zm0 0" fill="#f75c64"/><path d="m507 67.199219c-1.398438 0-2.601562-.597657-3.601562-1.398438-.199219-.199219-.398438-.402343-.597657-.800781-.199219-.199219-.402343-.601562-.402343-.800781-.199219-.199219-.199219-.597657-.199219-1 0-.398438-.199219-.597657-.199219-1 0-.398438 0-.597657.199219-1 0-.398438.199219-.597657.199219-1 .203124-.398438.203124-.597657.402343-.800781.199219-.199219.398438-.597657.597657-.796876 1.402343-1.402343 3.601562-1.800781 5.402343-1 .199219.199219.597657.199219.800781.398438.199219.199219.597657.398438.796876.601562.203124.199219.402343.398438.601562.796876.199219.203124.398438.601562.398438.800781.203124.199219.203124.601562.203124 1 0 .402343 0 .601562.199219 1 0 .402343 0 .601562-.199219 1 0 .402343-.203124.601562-.203124 1-.199219.402343-.199219.601562-.398438.800781s-.398438.601562-.601562.800781c-.199219.199219-.398438.398438-.796876.597657-.203124.203124-.601562.402343-.800781.402343-.402343.199219-.601562.199219-1 .199219-.199219.199219-.402343.199219-.800781.199219zm0 0" fill="#6dcc6d"/><g fill="#231f20"><path d="m215 341.800781c-1.398438 0-2.601562-.601562-3.601562-1.402343l-64.597657-64.597657c-2-2-2-5.199219 0-7 .199219-.199219.597657-.402343.800781-.601562.199219-.199219 1.199219-1 1.796876-1.597657 15-13.800781 34.203124-22.402343 54.601562-24.203124l32.601562-5.398438c11.796876-2 23.796876-1 35.199219 2.601562 21.398438 6.796876 38.597657 10.398438 48.398438 9.796876 2.800781-.199219 5.800781-.398438 8.800781-.597657 15.601562-1.199219 31.601562-2.601562 40.601562 5.398438 4 3.601562 6.398438 8.800781 6.597657 14.402343v.199219l49.199219-27c10.402343-5.800781 23.601562-2 29.402343 8.597657 5.199219 9.601562 2.597657 21.601562-6.402343 28l-59.398438 42.402343s-.199219 0-.199219.199219c-23.199219 15.398438-51.601562 20.800781-79 15.199219l-46-9.199219c-15.601562-3.199219-30.601562 1.199219-44.199219 12.601562-.601562.597657-1.402343 1.199219-2.203124 1.597657-.796876.402343-1.597657.601562-2.398438.601562zm-57.199219-69.402343 57.597657 57.601562c15.601562-12.199219 32.402343-16.398438 50.402343-13h.398438l45.800781 9.199219c24.601562 5 50.398438 0 71.398438-13.800781l59.601562-42.796876c5.199219-3.800781 6.398438-11 2.601562-16.203124-3.402343-4.796876-9.800781-6.199219-15-3.398438l-63 34.398438c-5.800781 4-12.402343 6.800781-19.402343 8.402343-8.597657 2.199219-17.398438 3.597657-26.398438 4.199219-2.800781.199219-5-2-5.199219-4.800781-.203124-2.800781 2-5 4.597657-5.199219 11.199219-.601562 31.402343-4 40.402343-10.800781.199219-.199219.398438-.398438.796876-.597657 2.402343-1.601562 4-4.402343 4-7.402343 0-2.800781-1-5.398438-3-7.398438-5.796876-5.199219-20.398438-4-33.199219-3-3 .199219-6.199219.398438-9 .597657-14.199219.800781-36.199219-5.199219-52-10.199219-9.800781-3.199219-20.398438-4-30.597657-2.199219l-32.800781 5.398438c-.199219 0-.199219 0-.402343 0-17.796876 2.203124-34.398438 9.402343-47.597657 21zm0 0"/><path d="m97.398438 488.398438c-3.199219 0-6.398438-1.199219-8.796876-3.597657l-85-85.199219c-4.800781-4.800781-4.800781-12.601562 0-17.402343l107-107c4.796876-4.800781 12.597657-4.800781 17.398438 0l85 85c4.800781 4.800781 4.800781 12.601562 0 17.402343l-107 107.199219c-2.199219 2.199219-5.398438 3.597657-8.601562 3.597657zm21.800781-206.796876c-.597657 0-1.199219.199219-1.597657.597657l-107 107c-1 1-1 2.402343 0 3.199219l85 85c.398438.402343 1 .601562 1.597657.601562.601562 0 1.199219-.199219 1.601562-.601562l107-107c1-1 1-2.398438 0-3.199219l-85-85c-.402343-.398438-1-.597657-1.601562-.597657zm-5-2.800781"/><path d="m207.398438 366.800781c-1.398438 0-2.597657-.601562-3.597657-1.402343l-82.402343-82.597657c-2-2-2-5.199219 0-7l13.402343-13.402343c3.597657-3.597657 9.398438-3.597657 13 0l76.597657 76.601562c3.601562 3.601562 3.601562 9.398438 0 13l-13.398438 13.398438c-1 .800781-2.199219 1.402343-3.601562 1.402343zm-75.398438-87.601562 75.398438 75.402343 9.203124-9.203124-75.402343-75.398438zm85.199219 66.800781"/><path d="m459.398438 260.398438h-7.597657c-2.199219 0-4.199219-1.398438-4.800781-3.597657-1.800781-6.199219-8.199219-9.601562-14.398438-7.800781-.800781.199219-1.601562.601562-2.203124 1l-17.796876 9.800781c-.800781.398438-1.601562.597657-2.402343.597657h-46.800781c-.796876 0-1.597657-.199219-2.199219-.597657-6.800781-3.402343-19.199219-2.402343-31.199219-1.601562-3 .199219-6 .402343-9 .601562-14.199219.800781-36.199219-5.199219-52-10.199219-9.800781-3.203124-20.398438-4-30.601562-2.203124l-32.796876 5.402343c-.203124 0-.203124 0-.402343 0-5.800781.597657-11.398438 1.597657-17 3.398438-1.398438.402343-3 .199219-4.199219-.597657-9.601562-6.402343-15.398438-17.203124-15.398438-28.800781 0-2.800781 2.199219-5 5-5h315.597657c2.800781 0 5 2.199219 5 5-.199219 19.199219-15.597657 34.597657-34.800781 34.597657zm-4.199219-10h4.402343c11.597657 0 21.597657-8.199219 24-19.597657h-304.601562c1.199219 5.597657 4.199219 10.597657 8.601562 14.199219 5.398438-1.601562 10.796876-2.601562 16.398438-3l32.601562-5.398438c11.796876-2 23.796876-1 35.199219 2.597657 21.398438 6.800781 38.597657 10.402343 48.398438 9.800781 2.800781-.199219 5.800781-.398438 8.800781-.601562 12.800781-1 26-2 35.398438 2h44.402343l16.597657-9.199219c10.402343-5.597657 23.203124-2 29.203124 8.199219.199219.402343.398438.800781.597657 1zm0 0"/><path d="m495.800781 230.800781h-329c-8 0-14.402343-6.402343-14.402343-14.402343s6.402343-14.398438 14.402343-14.398438h329c8 0 14.398438 6.398438 14.398438 14.398438s-6.398438 14.402343-14.398438 14.402343zm-329-19c-2.402343 0-4.402343 2-4.402343 4.398438 0 2.402343 2 4.402343 4.402343 4.402343h329c2.398438 0 4.398438-2 4.398438-4.402343 0-2.398438-2-4.398438-4.398438-4.398438zm0 0"/><path d="m424.398438 174h-186.398438c-8 0-14.398438-6.398438-14.398438-14.398438s6.398438-14.402343 14.398438-14.402343h186.398438c8 0 14.402343 6.402343 14.402343 14.402343.199219 7.796876-6.402343 14.398438-14.402343 14.398438zm-186.199219-19c-2.398438 0-4.398438 2-4.398438 4.398438 0 2.402343 2 4.402343 4.398438 4.402343h186.402343c2.398438 0 4.398438-2 4.398438-4.402343 0-2.398438-2-4.398438-4.398438-4.398438zm0 0"/><path d="m355.199219 174h-47.800781c-8 0-14.398438-6.398438-14.398438-14.398438s6.398438-14.402343 14.398438-14.402343h47.800781c8 0 14.402343 6.402343 14.402343 14.402343s-6.402343 14.398438-14.402343 14.398438zm-47.800781-19c-2.398438 0-4.398438 2-4.398438 4.398438 0 2.402343 2 4.402343 4.398438 4.402343h47.800781c2.402343 0 4.402343-2 4.402343-4.402343 0-2.398438-2-4.398438-4.402343-4.398438zm0 0"/><path d="m425.199219 211.800781h-187.800781c-7.597657 0-13.796876-6.199219-13.796876-13.800781v-20.199219c0-7.601562 6.199219-13.800781 13.796876-13.800781h187.800781c7.601562 0 13.800781 6.199219 13.800781 13.800781v20.398438c0 7.601562-6.199219 13.601562-13.800781 13.601562zm-187.800781-37.800781c-2 0-3.796876 1.601562-3.796876 3.800781v20.398438c0 2 1.597657 3.800781 3.796876 3.800781h187.800781c2 0 3.800781-1.601562 3.800781-3.800781v-20.398438c0-2-1.601562-3.800781-3.800781-3.800781zm0 0"/><path d="m257 193c-.398438 0-.601562 0-1-.199219-.398438 0-.601562-.199219-1-.402343-.398438-.199219-.601562-.199219-.800781-.398438-.597657-.398438-1-.800781-1.398438-1.398438-.199219-.203124-.402343-.601562-.402343-.800781-.199219-.402343-.199219-.601562-.199219-1 0-.402343-.199219-.601562-.199219-1 0-1.402343.601562-2.601562 1.398438-3.601562.203124-.199219.402343-.398438.800781-.597657.199219-.203124.601562-.402343.800781-.402343.398438-.199219.601562-.199219 1-.398438.601562-.199219 1.398438-.199219 2 0 .398438 0 .601562.199219 1 .398438s.601562.199219.800781.402343c.199219.199219.597657.398438.800781.597657 1 1 1.398438 2.199219 1.398438 3.601562 0 .398438 0 .597657-.199219 1 0 .398438-.199219.597657-.199219 1-.203124.199219-.203124.597657-.402343.800781-.199219.199219-.398438.597657-.597657.796876-.203124.203124-.402343.402343-.800781.601562-.199219.199219-.601562.398438-.800781.398438-.199219.203124-.601562.203124-1 .402343-.398438 0-.601562.199219-1 .199219zm0 0"/><path d="m331.199219 193c-1.398438 0-2.597657-.601562-3.597657-1.398438-2-2-2-5.203124 0-7 .199219-.203124.398438-.402343.796876-.601562 2.203124-1.601562 5.402343-1 7 1.398438 1 1.402343 1 3.203124.402343 4.601562-.199219.199219-.199219.601562-.402343.800781-.199219.199219-.398438.597657-.597657.800781-1 .796876-2.199219 1.398438-3.601562 1.398438zm0 0"/><path d="m405.601562 193c-.402343 0-.601562 0-1-.199219-.601562-.199219-1.203124-.402343-1.800781-.800781-.199219-.199219-.601562-.398438-.800781-.601562-2-2-2-5.199219 0-7 .199219-.199219.398438-.398438.800781-.597657 2-1.402343 4.597657-1 6.398438.597657 1 1 1.402343 2.203124 1.402343 3.601562 0 .398438 0 .601562-.203124 1 0 .398438-.199219.601562-.199219 1-.199219.199219-.199219.601562-.398438.800781s-.402343.597657-.601562.800781c-1 .796876-2.199219 1.398438-3.597657 1.398438zm0 0"/><path d="m368.398438 193c-1.398438 0-2.597657-.601562-3.597657-1.398438-.199219-.203124-.402343-.402343-.601562-.800781-.199219-.199219-.398438-.601562-.398438-.800781-.199219-.398438-.199219-.601562-.199219-1s0-.601562-.203124-1c0-2.800781 2.203124-5 5-5h1c.601562.199219 1.203124.398438 1.800781.800781.199219.199219.601562.398438.800781.597657 2 2 2 5.203124 0 7-.199219.203124-.398438.402343-.800781.601562-.597657.398438-1.199219.601562-1.800781.800781-.398438.199219-.597657.199219-1 .199219zm0 0"/><path d="m294.199219 193c-.398438 0-.597657 0-1-.199219-.398438 0-.597657-.199219-1-.402343-.398438-.199219-.597657-.199219-.800781-.398438-.199219-.199219-.597657-.398438-.796876-.601562-.203124-.199219-.402343-.398438-.601562-.796876-.199219-.203124-.398438-.601562-.398438-.800781-.203124-.402343-.203124-.601562-.203124-1 0-.402343 0-.601562-.199219-1 0-2.800781 2.199219-5 5-5h1c.601562.199219 1.199219.398438 1.800781.800781.199219.199219.601562.398438.800781.597657 2 2 2 5.199219 0 7-1 1.199219-2.402343 1.800781-3.601562 1.800781zm0 0"/><path d="m424.398438 62.398438c-8 0-14.398438-6.398438-14.398438-14.398438s6.398438-14.398438 14.398438-14.398438 14.402343 6.398438 14.402343 14.398438c.199219 7.800781-6.402343 14.199219-14.402343 14.398438zm0-19c-2.398438 0-4.398438 2-4.398438 4.402343 0 2.398438 2 4.398438 4.398438 4.398438 2.402343 0 4.402343-2 4.402343-4.398438.199219-2.402343-1.800781-4.402343-4.402343-4.402343zm0 0"/><path d="m238.199219 62.398438c-8 0-14.398438-6.398438-14.398438-14.398438s6.398438-14.398438 14.398438-14.398438 14.402343 6.398438 14.402343 14.398438c0 7.800781-6.601562 14.199219-14.402343 14.398438zm0-19c-2.398438 0-4.398438 2-4.398438 4.402343 0 2.398438 2 4.398438 4.398438 4.398438 2.402343 0 4.402343-2 4.402343-4.398438 0-2.402343-2-4.402343-4.402343-4.402343zm0 0"/><path d="m331.199219 62.398438c-8 0-14.398438-6.398438-14.398438-14.398438s6.398438-14.398438 14.398438-14.398438 14.402343 6.398438 14.402343 14.398438c.199219 7.800781-6.402343 14.199219-14.402343 14.398438zm0-19c-2.398438 0-4.398438 2-4.398438 4.402343 0 2.398438 2 4.398438 4.398438 4.398438 2.402343 0 4.402343-2 4.402343-4.398438.199219-2.402343-1.800781-4.402343-4.402343-4.402343zm0 0"/><path d="m424.398438 155h-186.398438c-2.800781 0-5-2.199219-5-5v-92.601562c0-2.796876 2.199219-5 5-5 1.199219 0 2.199219-.398438 3-1.199219 2-1.800781 5.199219-1.800781 7 .402343l36.601562 40 36.597657-40c1.800781-2 5-2.203124 7-.402343 1.800781 1.601562 4.402343 1.601562 6 0 2-1.800781 5.199219-1.800781 7 .402343l36.601562 40 36.597657-40c1.800781-2 5-2.203124 7-.402343.800781.800781 1.800781 1.199219 3 1.199219 2.800781 0 5 2.203124 5 5v92.601562c0 2.800781-2.199219 5-5 5zm-181.199219-10h176.402343v-83.601562c-.203124 0-.402343-.199219-.402343-.199219l-37.398438 41c-2 2-5.199219 2-7.199219 0l-37.402343-41c-3.597657 1.402343-7.398438 1.402343-11 0l-37.398438 41c-2 2-5.199219 2-7.199219 0l-37.402343-41c-.199219 0-.398438.199219-.398438.199219zm0 0"/><path d="m331.199219 133.800781c-1.398438 0-2.597657-.601562-3.597657-1.601562l-12.601562-13.199219c-.800781-1-1.398438-2.199219-1.398438-3.398438v-14.601562c0-1.199219.398438-2.601562 1.398438-3.398438l12.601562-13.203124c1-1 2.199219-1.597657 3.597657-1.597657 1.402343 0 2.601562.597657 3.601562 1.597657l12.597657 13.203124c.800781 1 1.402343 2.199219 1.402343 3.398438v14.601562c0 1.199219-.402343 2.597657-1.402343 3.398438l-12.597657 13.199219c-.800781 1-2.199219 1.601562-3.601562 1.601562zm-7.597657-20.199219 7.597657 8 7.601562-8v-10.601562l-7.601562-8-7.597657 8zm0 0"/></g></svg>