<svg height="512pt" viewBox="0 -11 512 512" width="512pt" xmlns="http://www.w3.org/2000/svg"><path d="m245 0c-50.980469 0-98.320312 15.578125-137.53125 42.222656v405.554688c39.210938 26.648437 86.550781 42.222656 137.53125 42.222656 135.308594 0 245-109.691406 245-245s-109.691406-245-245-245zm0 0" fill="#27a3ff"/><path d="m336.808594 472.199219h-183.617188c28.355469 11.476562 59.339844 17.800781 91.808594 17.800781s63.453125-6.324219 91.808594-17.800781zm0 0" fill="#2b3894"/><path d="m118.648438 404.519531-2.066407-38.550781h-84.671875c19.4375 34.164062 46.851563 63.191406 79.707032 84.558594h21.277343l-3.03125-5.691406c-6.628906-12.460938-10.457031-26.21875-11.214843-40.316407zm0 0" fill="#86fdfb"/><path d="m118.648438 404.519531-2.066407-38.550781h-84.671875c19.4375 34.164062 46.851563 63.191406 79.707032 84.558594h21.277343l-3.03125-5.691406c-6.628906-12.460938-10.457031-26.21875-11.214843-40.316407zm0 0" fill="#11dfef"/><path d="m283.488281 16.800781c-4.550781 0-58.75 0-127.8125 0-37.328125 14.621094-70.191406 38.140625-95.988281 67.945313l-55.910156 203.246094c1.589844 8.960937 3.660156 17.757812 6.195312 26.355468l51.667969-.328125 239.925781 1.53125v-280.671875c0-9.945312-8.132812-18.078125-18.078125-18.078125zm0 0" fill="#2b3894"/><path d="m0 245c0 14.679688 1.296875 29.058594 3.769531 43.027344h271.644531c.777344 0 1.40625-.632813 1.40625-1.410156v-176.328126h-236.472656c-25.496094 38.652344-40.347656 84.945313-40.347656 134.710938zm0 0" fill="#e6f7fe"/><path d="m87.84375 110.289062h-47.496094c-25.496094 38.652344-40.347656 84.945313-40.347656 134.710938 0 14.679688 1.296875 29.058594 3.769531 43.027344h84.074219zm0 0" fill="#d5f1fe"/><path d="m32.964844 367.800781h250.523437c9.945313 0 18.078125-8.132812 18.078125-18.078125v-36.910156c-12.558594 0-162.589844 0-292.050781 0 5.585937 19.429688 13.507813 37.867188 23.449219 54.988281zm0 0" fill="#d5f1fe"/><path d="m74.015625 340.308594c0 6.832031-5.539063 12.371094-12.371094 12.371094-6.835937 0-12.375-5.539063-12.375-12.371094 0-6.832032 5.539063-12.371094 12.375-12.371094 6.832031 0 12.371094 5.539062 12.371094 12.371094zm0 0" fill="#11dfef"/><path d="m39.03125 112.289062h237.789062v-28.175781h-216.585937c-7.71875 8.855469-14.808594 18.269531-21.203125 28.175781zm0 0" fill="#d5f1fe"/><path d="m87.84375 84.113281h-27.609375c-7.714844 8.855469-14.808594 18.269531-21.203125 28.175781h48.8125zm0 0" fill="#11dfef"/><path d="m274.636719 41.542969h-166.167969c-18.121094 12.183593-34.527344 26.722656-48.773438 43.179687h217.125v-40.992187c0-1.183594-1-2.1875-2.183593-2.1875zm0 0" fill="#615df9"/><path d="m87.84375 57.066406c-10.105469 8.457032-19.527344 17.699219-28.148438 27.65625h28.148438zm0 0" fill="#3d4ec6"/><path d="m177.617188 70.632812c4.144531 0 7.5-3.355468 7.5-7.5 0-4.140624-3.355469-7.5-7.5-7.5h-88.074219c-5.773438 4.746094-11.320313 9.757813-16.632813 15zm0 0" fill="#aeaeff"/><path d="m152.671875 63.132812c0-4.140624 3.359375-7.5 7.5-7.5h-70.628906c-5.773438 4.746094-11.320313 9.757813-16.632813 15h87.261719c-4.140625 0-7.5-3.355468-7.5-7.5zm0 0" fill="#8181fc"/><path d="m247.265625 70.632812h-39.144531c-4.144532 0-7.5-3.355468-7.5-7.5 0-4.140624 3.355468-7.5 7.5-7.5h39.144531c4.140625 0 7.5 3.359376 7.5 7.5 0 4.144532-3.359375 7.5-7.5 7.5zm0 0" fill="#aeaeff"/><path d="m465.449219 203.308594h-327.765625c-9.085938 0-16.519532 7.433594-16.519532 16.519531v227.625h360.804688v-227.625c0-9.085937-7.433594-16.519531-16.519531-16.519531zm0 0" fill="#2b3894"/><path d="m225.839844 203.308594h-88.15625c-9.085938 0-16.519532 7.433594-16.519532 16.519531v227.625h97.445313v-233.144531c0-4.90625 2.988281-9.144532 7.230469-11zm0 0" fill="#2b3894"/><path d="m135.121094 285.027344h332.886718v162.425781h-332.886718zm0 0" fill="#e6f7fe"/><path d="m135.121094 285.027344h83.488281v162.425781h-83.488281zm0 0" fill="#d5f1fe"/><path d="m465.824219 217.269531h-328.515625c-1.183594 0-2.183594 1-2.183594 2.183594v40.996094h332.886719v-40.996094c-.003907-1.183594-1.003907-2.183594-2.1875-2.183594zm0 0" fill="#615df9"/><path d="m137.308594 217.269531c-1.183594 0-2.1875 1-2.1875 2.183594v40.996094h83.488281v-43.179688zm0 0" fill="#3342ae"/><path d="m159.339844 246.363281c-4.125 0-7.5-3.371093-7.5-7.5 0-3.433593 2.359375-6.59375 6.039062-7.359375 4.65625-.914062 8.960938 2.636719 8.960938 7.359375 0 4.230469-3.476563 7.5-7.5 7.5zm0 0" fill="#f948b4"/><path d="m179.859375 246.363281c-4.042969 0-7.5-3.285156-7.5-7.5 0-4.746093 4.335937-8.269531 8.96875-7.359375 3.613281.769532 6.03125 3.824219 6.03125 7.359375 0 4.214844-3.476563 7.5-7.5 7.5zm0 0" fill="#fecd0a"/><path d="m200.367188 246.363281c-4.078126 0-7.5-3.355469-7.5-7.5 0-3.386719 2.324218-6.585937 6.042968-7.359375 4.597656-.925781 8.957032 2.605469 8.957032 7.359375 0 4.152344-3.375 7.5-7.5 7.5zm0 0" fill="#39df74"/><path d="m382.949219 246.359375h-156.839844c-4.140625 0-7.5-3.359375-7.5-7.5s3.359375-7.5 7.5-7.5h156.839844c4.144531 0 7.5 3.359375 7.5 7.5s-3.355469 7.5-7.5 7.5zm0 0" fill="#aeaeff"/><path d="m351.8125 238.859375c0-4.140625 3.359375-7.5 7.5-7.5h-133.203125c-4.140625 0-7.5 3.359375-7.5 7.5s3.359375 7.5 7.5 7.5h133.203125c-4.140625 0-7.5-3.359375-7.5-7.5zm0 0" fill="#8181fc"/><path d="m441.449219 246.359375h-34c-4.140625 0-7.5-3.359375-7.5-7.5s3.359375-7.5 7.5-7.5h34c4.144531 0 7.5 3.359375 7.5 7.5s-3.355469 7.5-7.5 7.5zm0 0" fill="#aeaeff"/><path d="m135.121094 259.449219h332.886718v27.578125h-332.886718zm0 0" fill="#d5f1fe"/><path d="m135.121094 259.449219h83.488281v27.578125h-83.488281zm0 0" fill="#11dfef"/><path d="m188.773438 259.449219h-53.648438v27.578125h81.226562c0-15.230469-12.347656-27.578125-27.578124-27.578125zm0 0" fill="#11dfef"/><path d="m506.816406 444.453125c-8.160156 0-352.746094 0-404.117187 0 16.289062 11.640625 34.058593 21.335937 52.976562 28.746094h325.289063c14.972656 0 24.324218-5.980469 27.957031-7.28125 1.871094-.832031 3.078125-2.691407 3.078125-4.738281v-11.539063c0-2.863281-2.320312-5.1875-5.183594-5.1875zm0 0" fill="#aeaeff"/><path d="m105.398438 444.453125 30.203124 19.808594c6.53125 3.261719 13.222657 6.253906 20.074219 8.9375h127.625c-2.785156-1.195313-4.738281-3.964844-4.738281-7.1875 0-4.316407 3.5-7.820313 7.820312-7.820313.011719 0 .019532.003906.03125.003906v-13.742187c-79.226562 0-155.40625 0-181.015624 0zm0 0" fill="#8181fc"/><path d="m236.65625 444.453125v5.996094c0 4.609375 3.769531 8.378906 8.375 8.378906h113.070312c4.605469 0 8.375-3.769531 8.375-8.378906v-5.996094c-40.382812 0-86.707031 0-129.820312 0zm0 0" fill="#8181fc"/><path d="m276.15625 450.449219v-5.996094c-13.289062 0-26.542969 0-39.5 0v5.996094c0 4.609375 3.769531 8.378906 8.375 8.378906h39.5c-4.605469 0-8.375-3.769531-8.375-8.378906zm0 0" fill="#615df9"/><path d="m182.097656 257.382812h-87.75c-8.515625 0-15.445312 6.929688-15.445312 15.445313v152.257813c2.929687 2.699218 5.929687 5.328124 8.988281 7.890624l47.710937 31.285157c6.53125 3.265625 13.222657 6.253906 20.074219 8.9375h26.421875c8.515625 0 15.441406-6.929688 15.441406-15.441407v-184.929687c0-8.515625-6.925781-15.445313-15.441406-15.445313zm0 0" fill="#3d4ec6"/><path d="m121.164062 454.792969v-179.40625c-.878906.265625-1.808593.414062-2.773437.414062-5.234375 0-9.476563-4.242187-9.476563-9.476562 0-4.140625 2.65625-7.648438 6.355469-8.941407h-20.921875c-8.515625 0-15.445312 6.929688-15.445312 15.445313v152.257813c2.949218 2.71875 5.96875 5.355468 9.046875 7.925781zm0 0" fill="#3342ae"/><path d="m182.097656 266.324219h-13.042968c-1.230469 0-2.226563.996093-2.226563 2.226562 0 2.949219-2.414063 5.363281-5.363281 5.363281h-46.484375c-2.953125 0-5.367188-2.414062-5.367188-5.363281 0-1.230469-.996093-2.226562-2.222656-2.226562h-13.042969c-3.589844 0-6.503906 2.910156-6.503906 6.503906v160.113281c14.578125 12.203125 30.59375 22.738282 47.757812 31.316406h46.496094c3.589844 0 6.503906-2.910156 6.503906-6.5 0-6.550781 0-178.21875 0-184.933593 0-3.589844-2.914062-6.5-6.503906-6.5zm0 0" fill="#4fbbff"/><path d="m115.246094 273.914062h-.269532c-2.949218 0-5.363281-2.414062-5.363281-5.363281 0-1.230469-.996093-2.226562-2.226562-2.226562h-13.039063c-3.589844 0-6.503906 2.910156-6.503906 6.5v160.117187c8.644531 7.238282 17.808594 13.871094 27.402344 19.875zm0 0" fill="#27a3ff"/></svg>