<svg enable-background="new 0 0 140 140" height="512" viewBox="0 0 140 140" width="512" xmlns="http://www.w3.org/2000/svg"><circle cx="70" cy="70" fill="#4abaa4" r="64"/><path d="m62.9899902 52.2399902v-3.9899902c-2.4599609-2.0700073-4.0400391-5.210022-4.0400391-8.710022v-.3999634l-.9499511-.9500122h.0100098c-.75-.710022-1.2700195-2.2399902-1.2700195-4.0200195 0-.039978.0100098-.0700073.0100098-.1099854-1.4299317-3.0499877-2.4099122-8.3099975 1.409912-14.2600097 6.4400635-10.039978 18.1201172-2.4799805 18.1201172-2.4799805s3.1799316-.25 5.4699707 2.3099976l41.4000244 41.3999634c.2099609.1799927.4100342.3800049.6099854.6000366l10.1899414 10.1999512c-.9699707 34.5-29.2199707 62.1700439-63.9499512 62.1700439-2.7600098 0-5.4799805-.2000122-8.1599121-.5400391l-23.3601074-23.3599854-6.6199951-32.0700073c-.6700439-3.2299805 1.5999756-6.289978 4.6500244-6.289978h1.3999023c.3500977-4.2299804 1.0900879-7.9700317 2.9500733-10.3200073 1.4899902-1.8699951 5.9500732-3.6199951 10.0300293-4.9099731 4.0899658-1.2800293 7.7999268-2.1000366 7.7999268-2.1000366l4.2700195-2.1799927h.0100098z" opacity=".1"/><path d="m61.5575066 55.1974678c.6557274 4.0779305 4.1891975 7.20644 8.4491615 7.20644 4.2600098 0 7.7935257-3.1285095 8.4492035-7.2065392-1.503952-1.0465927-1.4362106-2.4858856-1.4362106-2.4858856v-4.4574776h-14.0258866v4.4574776s.067791 1.4393425-1.4362678 2.4859848z" fill="#d6b24e"/><path d="m81.059845 29.7138481c-.0023804 0-.0046997.0007153-.0070877.0007153-.1491852-6.0793056-5.0599365-11.0060692-11.0460129-11.0060692h-.000061c-5.9860764 0-10.8968277 4.9267635-11.0460129 11.0060692-.0023842 0-.0047035-.0007153-.0070839-.0007153-1.2204704 0-2.2097778 1.9942093-2.2097778 4.4541397 0 2.4599266.9893074 4.4541054 2.2097778 4.4541054v.9226913c0 6.2093544 4.9739113 11.2897682 11.0530968 11.2897682h.000061c6.0791855 0 11.0531006-5.0804138 11.0531006-11.2897682v-.9226913c1.2204056 0 2.2097778-1.9941788 2.2097778-4.4541054 0-2.4599304-.9893723-4.4541397-2.2097778-4.4541397z" fill="#ffd25a"/><path d="m76.275383 17.3183193s-11.6775665-7.5544567-18.1166153 2.4805775c-4.9999847 7.792387-1.7750587 14.4182816-.0835037 16.4180489l1.8194389.8105431v-6.3421822c.8602409-2.2932148 2.469532-4.0622826 5.4670753-1.9789143 2.3581009 1.638958 4.3288422 1.4490204 5.8525467.6142368 3.3015442-1.8086891 7.2279282-.9065475 9.2989655 1.7979431v5.9089165h1.3040924l1.4309692-3.4799194c3.71064-17.0763397-6.972969-16.22925-6.972969-16.22925z" fill="#293b44"/><path d="m72.7798309 56.358963 6.0191269 2.9591332-6.2528534 18.3332634-1.8390808-4.2094422-.1634674-14.7943306z" fill="#e6e7e8"/><path d="m102.4419022 79.8424683c-.2187729-7.2260437-.2999725-14.6428833-3.3061676-18.4186401-2.9838181-3.747467-17.8308487-7.0149117-17.8308487-7.0149117l-2.7421341 3.0610466-.3570862 1.5560112-1.390274 6.0965996-1.6325912 7.2062454-2.2172699 7.513649z" fill="#344e5c"/><path d="m77.0399094 52.2217789-7.0405198 3.6664543 5.491829 3.429863z" fill="#dad7dc"/><path d="m67.2189407 56.358963-6.0191192 2.9591332 6.2528534 18.3332634 1.8390731-4.2094422.1634751-14.7943306z" fill="#e6e7e8"/><path d="m67.0582352 79.8424683-2.2447968-7.513649-1.6580887-7.2827225-1.3646698-6.0201225-.357193-1.5560112-2.7421379-3.0610466s-14.846817 3.2675514-17.8306351 7.0149117c-3.0061913 3.7755356-3.0875015 11.1924896-3.3026123 18.4186401z" fill="#344e5c"/><path d="m62.9588661 52.2217789 7.0405235 3.6664543-5.4918365 3.429863z" fill="#dad7dc"/><path d="m67.5345993 79.8424683h4.9298325l.3065338-.5782166-1.5097656-19.2420921 1.3069152-2.5235863-2.5686493-1.5997887-2.5686569 1.5997887 1.3068085 2.5235863-1.509552 19.2420921z" fill="#f37735"/><g fill="#293b44"><path d="m57.6069679 66.2182465 7.0492211 13.6242218h4.3303146l-6.0170097-27.6163979-4.280941 2.1856461-1.5322457 7.9761352 3.6051712 1.9827919z"/><path d="m75.3427353 79.8424683 7.0492248-13.6242218-3.1544036-1.8476029 3.6050567-1.9827919-1.532135-7.9761352-4.2811584-2.1856461-6.0168915 27.6163979z"/><path d="m50.5623741 79.8424683.4379654-8.1003647-.8820648 8.1003647z"/><path d="m89.8779602 79.8424683-.8820648-8.1003647.4379654 8.1003647z"/></g><path d="m103.4858246 71.7420807h-66.9716225c-3.0532227 0-5.3201904 3.0612793-4.6547852 6.2858887l6.6176758 32.0717773h63.0458412l6.6176758-32.0717773c.6654053-3.2246094-1.6015625-6.2858887-4.6547851-6.2858887z" fill="#ececec"/><path d="m71.0124359 92.4522858v-3.0627441h4.8112183c-.6785278-2.5859375-3.0249023-4.4960938-5.8236084-4.4960938-3.3289185 0-6.0275307 2.6984863-6.0275307 6.0274658 0 3.3288574 2.6986122 6.0274658 6.0275307 6.0274658 2.7987061 0 5.1450806-1.9102783 5.8236084-4.4960938h-4.8112183z" fill="#b0b1b5"/></svg>