<svg height="512pt" viewBox="0 -5 512 512" width="512pt" xmlns="http://www.w3.org/2000/svg"><path d="m318.539062 34.015625v317.664063c0 18.792968-71.304687 34.023437-159.269531 34.023437-87.964843 0-159.269531-15.230469-159.269531-34.023437v-317.664063zm0 0" fill="#4895ff"/><path d="m318.539062 34.015625v317.664063c0 18.792968-71.304687 34.023437-159.269531 34.023437v-351.6875zm0 0" fill="#2682ff"/><path d="m318.539062 141.753906v105.878906c0 2.351563-1.113281 4.640626-3.230468 6.859376-22.207032 23.144531-122.660156 27.164062-156.039063 27.164062-71.324219 0-131.703125-10.011719-151.988281-23.816406-4.730469-3.21875-7.28125-6.644532-7.28125-10.195313v-105.890625c0 18.792969 71.304688 34.011719 159.269531 34.011719 87.964844 0 159.269531-15.21875 159.269531-34.011719zm0 0" fill="#aed0ff"/><path d="m318.539062 141.753906v105.878906c0 2.351563-1.113281 4.640626-3.230468 6.859376-22.207032 23.144531-122.660156 27.164062-156.039063 27.164062v-105.890625c87.964844 0 159.269531-15.21875 159.269531-34.011719zm0 0" fill="#8cbcff"/><path d="m318.539062 34.019531c0 18.78125-71.304687 34.011719-159.269531 34.011719-87.964843 0-159.269531-15.230469-159.269531-34.011719 0-18.789062 71.304688-34.019531 159.269531-34.019531 87.964844 0 159.269531 15.230469 159.269531 34.019531zm0 0" fill="#aed0ff"/><path d="m318.539062 34.019531c0 18.78125-71.304687 34.011719-159.269531 34.011719v-68.03125c87.964844 0 159.269531 15.230469 159.269531 34.019531zm0 0" fill="#8cbcff"/><path d="m512 350.675781c0 82.984375-67.507812 150.492188-150.480469 150.492188h-.574219c-82.726562-.3125-149.910156-67.695313-149.910156-150.492188 0-82.785156 67.183594-150.167969 149.910156-150.480469h.574219c82.972657 0 150.480469 67.503907 150.480469 150.480469zm0 0" fill="#ff5e93"/><path d="m512 350.675781c0 82.984375-67.507812 150.492188-150.480469 150.492188h-.574219v-300.972657h.574219c82.972657 0 150.480469 67.503907 150.480469 150.480469zm0 0" fill="#ff3c7d"/><path d="m479.078125 350.675781c0 34.386719-14.757813 65.382813-38.285156 86.988281-21.039063 19.335938-49.089844 31.15625-79.847657 31.15625-30.195312 0-57.796874-11.394531-78.710937-30.113281-24.195313-21.632812-39.445313-53.082031-39.445313-88.03125 0-65.144531 53.011719-118.136719 118.15625-118.136719 65.144532 0 118.132813 52.992188 118.132813 118.136719zm0 0" fill="#ffeb99"/><path d="m479.078125 350.675781c0 34.386719-14.757813 65.382813-38.285156 86.988281-21.039063 19.335938-49.089844 31.15625-79.847657 31.15625v-236.28125c65.144532 0 118.132813 52.992188 118.132813 118.136719zm0 0" fill="#ffda44"/><path d="m462.492188 350.675781c0 29.621094-24.09375 53.710938-53.703126 53.710938-18.875 0-33.925781-13.535157-47.84375-29.714844-3.953124-4.597656-7.820312-9.40625-11.65625-14.171875-10.898437-13.574219-25.835937-32.167969-35.042968-32.167969-12.324219 0-22.355469 10.023438-22.355469 22.34375 0 12.332031 10.03125 22.355469 22.355469 22.355469.25 0 2.59375-.09375 7.410156-3.21875 7.265625-4.722656 16.972656-2.65625 21.6875 4.609375 4.714844 7.253906 2.652344 16.960937-4.609375 21.6875-8.457031 5.488281-16.703125 8.277344-24.488281 8.277344-29.621094 0-53.710938-24.089844-53.710938-53.710938 0-29.609375 24.089844-53.699219 53.710938-53.699219 18.363281 0 33.101562 12.800782 46.699218 28.394532 4.355469 4.988281 8.589844 10.265625 12.789063 15.492187 10.914063 13.574219 25.847656 32.167969 35.054687 32.167969 12.324219 0 22.347657-10.023438 22.347657-22.355469 0-12.320312-10.023438-22.34375-22.347657-22.34375-.3125 0-3.1875.125-9.195312 4.441407-7.035156 5.046874-16.828125 3.4375-21.886719-3.585938-5.046875-7.035156-3.4375-16.835938 3.597657-21.886719 9.539062-6.855469 18.789062-10.324219 27.484374-10.324219 29.609376 0 53.703126 24.089844 53.703126 53.699219zm0 0" fill="#4895ff"/><path d="m462.492188 350.675781c0 29.621094-24.09375 53.710938-53.703126 53.710938-18.875 0-33.925781-13.535157-47.84375-29.714844v-49.300781c4.355469 4.988281 8.589844 10.265625 12.789063 15.492187 10.914063 13.574219 25.847656 32.167969 35.054687 32.167969 12.324219 0 22.347657-10.023438 22.347657-22.355469 0-12.320312-10.023438-22.34375-22.347657-22.34375-.3125 0-3.1875.125-9.195312 4.441407-7.035156 5.046874-16.828125 3.4375-21.886719-3.585938-5.046875-7.035156-3.4375-16.835938 3.597657-21.886719 9.539062-6.855469 18.789062-10.324219 27.484374-10.324219 29.609376 0 53.703126 24.089844 53.703126 53.699219zm0 0" fill="#2682ff"/></svg>